<svg xmlns="http://www.w3.org/2000/svg" xmlns:xlink="http://www.w3.org/1999/xlink" width="300" zoomAndPan="magnify" viewBox="0 0 224.87999 225" height="300" preserveAspectRatio="xMidYMid meet" version="1.0"><defs><clipPath id="a09e0666ad"><path d="M 0 0.0585938 L 224.761719 0.0585938 L 224.761719 224.9375 L 0 224.9375 Z M 0 0.0585938 " clip-rule="nonzero"/></clipPath></defs><g clip-path="url(#a09e0666ad)"><path fill="#f7df1e" d="M 0 0.0585938 L 224.878906 0.0585938 L 224.878906 224.941406 L 0 224.941406 Z M 0 0.0585938 " fill-opacity="1" fill-rule="nonzero"/></g><path fill="#000000" d="M 59.128906 187.984375 L 76.339844 177.574219 C 79.660156 183.460938 82.679688 188.441406 89.925781 188.441406 C 96.867188 188.441406 101.25 185.71875 101.25 175.160156 L 101.25 103.304688 L 122.375 103.304688 L 122.375 175.457031 C 122.375 197.339844 109.550781 207.308594 90.832031 207.308594 C 73.921875 207.308594 64.109375 198.550781 59.128906 187.984375 " fill-opacity="1" fill-rule="nonzero"/><path fill="#000000" d="M 133.855469 185.71875 L 151.066406 175.757812 C 155.597656 183.152344 161.484375 188.589844 171.894531 188.589844 C 180.652344 188.589844 186.238281 184.214844 186.238281 178.171875 C 186.238281 170.925781 180.5 168.359375 170.839844 164.132812 L 165.558594 161.867188 C 150.308594 155.375 140.199219 147.234375 140.199219 130.015625 C 140.199219 114.167969 152.269531 102.089844 171.144531 102.089844 C 184.578125 102.089844 194.238281 106.773438 201.179688 119 L 184.726562 129.566406 C 181.109375 123.078125 177.179688 120.511719 171.144531 120.511719 C 164.953125 120.511719 161.027344 124.4375 161.027344 129.566406 C 161.027344 135.910156 164.953125 138.476562 174.007812 142.402344 L 179.289062 144.660156 C 197.253906 152.363281 207.371094 160.207031 207.371094 177.875 C 207.371094 196.890625 192.429688 207.308594 172.347656 207.308594 C 152.726562 207.308594 140.050781 197.945312 133.855469 185.71875 " fill-opacity="1" fill-rule="nonzero"/></svg>