<svg xmlns="http://www.w3.org/2000/svg" xmlns:xlink="http://www.w3.org/1999/xlink" width="300" zoomAndPan="magnify" viewBox="0 0 224.87999 225" height="300" preserveAspectRatio="xMidYMid meet" version="1.0"><defs><clipPath id="f0c52a6733"><path d="M 19 69.070312 L 40 69.070312 L 40 145 L 19 145 Z M 19 69.070312 " clip-rule="nonzero"/></clipPath><clipPath id="eeb92d974f"><path d="M 0 69.070312 L 20 69.070312 L 20 146 L 0 146 Z M 0 69.070312 " clip-rule="nonzero"/></clipPath><clipPath id="d09b9e0123"><path d="M 18 134 L 23 134 L 23 156.023438 L 18 156.023438 Z M 18 134 " clip-rule="nonzero"/></clipPath><clipPath id="055b92ea78"><path d="M 173 109 L 224.761719 109 L 224.761719 136 L 173 136 Z M 173 109 " clip-rule="nonzero"/></clipPath></defs><g clip-path="url(#f0c52a6733)"><path fill="#599636" d="M 19.421875 69.402344 L 21.738281 73.757812 C 22.242188 74.546875 22.828125 75.273438 23.488281 75.9375 C 25.425781 77.878906 27.273438 79.910156 28.925781 82.089844 C 32.847656 87.25 35.496094 92.980469 37.390625 99.183594 C 38.523438 102.96875 39.136719 106.851562 39.183594 110.78125 C 39.375 122.519531 35.355469 132.605469 27.222656 140.984375 C 25.902344 142.3125 24.484375 143.53125 22.964844 144.628906 C 22.160156 144.628906 21.78125 143.992188 21.453125 143.445312 C 20.816406 142.382812 20.457031 141.21875 20.269531 140.039062 C 19.984375 138.617188 19.796875 137.199219 19.890625 135.730469 L 19.890625 135.066406 C 19.84375 134.921875 19.136719 69.734375 19.417969 69.402344 Z M 19.421875 69.402344 " fill-opacity="1" fill-rule="nonzero"/></g><g clip-path="url(#eeb92d974f)"><path fill="#6cac48" d="M 19.421875 69.261719 C 19.328125 69.070312 19.234375 69.214844 19.140625 69.308594 C 19.1875 70.253906 18.855469 71.105469 18.332031 71.914062 C 17.765625 72.71875 17.007812 73.332031 16.25 73.996094 C 12.042969 77.640625 8.734375 82.042969 6.082031 86.96875 C 2.585938 93.59375 0.742188 100.695312 0.222656 108.175781 C -0.0117188 110.875 1.074219 120.390625 1.925781 123.136719 C 4.242188 130.425781 8.402344 136.53125 13.816406 141.835938 C 15.144531 143.109375 16.5625 144.296875 18.027344 145.429688 C 18.453125 145.429688 18.5 145.050781 18.59375 144.769531 C 18.78125 144.164062 18.921875 143.546875 19.019531 142.921875 C 19.441406 140.554688 19.679688 138.1875 19.964844 135.820312 L 19.441406 69.261719 Z M 19.421875 69.261719 " fill-opacity="1" fill-rule="nonzero"/></g><g clip-path="url(#d09b9e0123)"><path fill="#c2bfbf" d="M 21.746094 147.515625 C 21.839844 146.429688 22.382812 145.527344 22.925781 144.628906 C 22.359375 144.394531 21.933594 143.917969 21.601562 143.398438 C 21.316406 142.921875 21.082031 142.332031 20.894531 141.835938 C 20.230469 139.847656 20.085938 137.761719 19.898438 135.726562 L 19.898438 134.492188 C 19.664062 134.683594 19.613281 136.292969 19.613281 136.53125 C 19.472656 138.707031 19.191406 140.839844 18.765625 142.921875 C 18.625 143.769531 18.53125 144.625 18.007812 145.382812 C 18.007812 145.476562 18.007812 145.574219 18.054688 145.714844 C 18.90625 148.222656 19.144531 150.78125 19.289062 153.382812 L 19.289062 154.328125 C 19.289062 155.464844 19.242188 155.230469 20.1875 155.605469 C 20.5625 155.746094 20.992188 155.796875 21.367188 156.078125 C 21.652344 156.078125 21.699219 155.84375 21.699219 155.652344 L 21.558594 154.089844 L 21.558594 149.734375 C 21.511719 148.976562 21.652344 148.21875 21.75 147.507812 Z M 21.746094 147.515625 " fill-opacity="1" fill-rule="nonzero"/></g><path fill="#47474a" d="M 57.652344 127.714844 L 57.652344 132.222656 C 57.648438 132.402344 57.65625 132.582031 57.683594 132.757812 C 57.742188 133.292969 58.070312 133.617188 58.550781 133.765625 C 59 133.886719 59.457031 133.976562 59.917969 134.035156 C 60.183594 134.066406 60.273438 134.183594 60.300781 134.46875 C 60.332031 135.476562 60.242188 135.597656 59.265625 135.535156 C 56.984375 135.417969 54.703125 135.390625 52.421875 135.535156 L 52.203125 135.535156 C 51.492188 135.566406 51.433594 135.507812 51.433594 134.792969 C 51.433594 134.675781 51.464844 134.527344 51.464844 134.40625 C 51.464844 134.191406 51.613281 134.082031 51.820312 134.082031 C 52.296875 134.023438 52.738281 133.902344 53.1875 133.816406 C 53.808594 133.667969 54.160156 133.28125 54.222656 132.660156 C 54.308594 131.976562 54.308594 131.265625 54.308594 130.582031 L 54.339844 122.632812 C 54.351562 122.398438 54.296875 122.175781 54.179688 121.972656 C 54.0625 121.769531 53.898438 121.613281 53.6875 121.503906 C 53.152344 121.203125 52.585938 120.96875 51.996094 120.792969 C 51.820312 120.734375 51.640625 120.703125 51.496094 120.613281 C 51.0625 120.40625 51.050781 120.019531 51.464844 119.78125 C 51.613281 119.695312 51.789062 119.632812 51.96875 119.605469 C 53.769531 119.335938 55.527344 118.894531 57.242188 118.269531 C 57.597656 118.148438 57.683594 118.183594 57.71875 118.535156 C 57.75 118.753906 57.71875 119.011719 57.6875 119.21875 C 57.628906 119.605469 57.628906 119.988281 57.628906 120.347656 C 57.628906 120.492188 57.660156 120.644531 57.808594 120.734375 C 57.953125 120.820312 58.105469 120.734375 58.242188 120.644531 C 58.863281 120.167969 59.484375 119.726562 60.167969 119.34375 C 61.140625 118.808594 62.183594 118.335938 63.308594 118.1875 C 64.675781 118.007812 65.859375 118.363281 66.898438 119.253906 C 67.328125 119.640625 67.703125 120.074219 68.023438 120.558594 C 68.320312 120.992188 68.347656 121.003906 68.734375 120.707031 C 69.859375 119.875 71.042969 119.136719 72.320312 118.601562 C 73.652344 118.035156 75.015625 117.949219 76.378906 118.421875 C 77.769531 118.925781 78.71875 119.90625 79.285156 121.242188 C 79.761719 122.308594 79.964844 123.410156 79.964844 124.5625 L 79.964844 132.511719 C 79.964844 133.042969 80.183594 133.378906 80.707031 133.640625 C 81.269531 133.855469 81.894531 133.964844 82.484375 134.085938 C 82.871094 134.171875 82.871094 134.171875 82.871094 134.5625 C 82.8125 135.539062 82.722656 135.597656 81.773438 135.539062 C 79.394531 135.40625 77.011719 135.40625 74.632812 135.539062 C 74.15625 135.570312 74.15625 135.570312 74.128906 135.09375 L 74.128906 134.945312 C 74.101562 134.144531 74.101562 134.144531 74.871094 133.96875 L 75.640625 133.761719 C 75.910156 133.699219 76.128906 133.558594 76.300781 133.34375 C 76.472656 133.125 76.558594 132.878906 76.5625 132.605469 L 76.648438 130.378906 L 76.589844 124.566406 C 76.566406 124.042969 76.457031 123.539062 76.261719 123.054688 C 75.523438 121.242188 73.894531 120.589844 72.320312 120.769531 C 71.136719 120.890625 70.097656 121.363281 69.121094 122.046875 C 68.914062 122.195312 68.765625 122.371094 68.796875 122.667969 C 69.0625 124.566406 68.882812 126.46875 68.914062 128.363281 L 68.914062 132.488281 C 68.914062 133.230469 69.210938 133.585938 69.921875 133.765625 L 71.289062 134.0625 C 71.496094 134.09375 71.613281 134.183594 71.613281 134.417969 L 71.613281 134.636719 C 71.585938 135.46875 71.527344 135.503906 70.695312 135.496094 C 68.324219 135.375 65.953125 135.410156 63.613281 135.496094 C 62.8125 135.527344 62.746094 135.4375 62.785156 134.628906 C 62.8125 134.148438 62.871094 134.125 63.316406 134.035156 L 64.292969 133.855469 C 65.160156 133.679688 65.476562 133.351562 65.535156 132.433594 L 65.625 130.445312 L 65.566406 124.480469 C 65.507812 123.738281 65.347656 123.027344 64.941406 122.34375 C 64.351562 121.246094 63.425781 120.683594 62.15625 120.625 C 60.882812 120.539062 59.757812 121.011719 58.6875 121.601562 C 57.945312 122.035156 57.621094 122.550781 57.679688 123.410156 L 57.679688 127.742188 Z M 113.480469 127.894531 L 113.480469 132.078125 C 113.484375 132.375 113.503906 132.671875 113.539062 132.96875 C 113.550781 133.171875 113.625 133.347656 113.757812 133.503906 C 113.886719 133.65625 114.050781 133.757812 114.25 133.800781 C 114.761719 133.949219 115.285156 134.039062 115.820312 134.066406 C 116.117188 134.097656 116.175781 134.214844 116.207031 134.453125 L 116.207031 134.660156 C 116.175781 135.699219 116.058594 135.820312 115.050781 135.761719 C 112.796875 135.613281 110.546875 135.640625 108.292969 135.761719 L 107.425781 135.789062 C 107.25 135.789062 107.210938 135.703125 107.160156 135.582031 C 107.074219 135.167969 107.074219 134.75 107.160156 134.335938 C 107.191406 134.160156 107.308594 134.121094 107.484375 134.070312 C 107.917969 134.011719 108.289062 133.921875 108.699219 133.851562 C 109.441406 133.675781 109.707031 133.375 109.734375 132.605469 L 109.824219 130.113281 L 109.824219 122.816406 C 109.824219 122.28125 109.613281 121.957031 109.140625 121.71875 C 108.609375 121.421875 108.042969 121.214844 107.449219 121.007812 C 107.273438 120.949219 107.09375 120.886719 106.949219 120.796875 C 106.5625 120.53125 106.515625 120.148438 106.890625 119.847656 C 107.0625 119.707031 107.257812 119.628906 107.480469 119.609375 C 109.378906 119.3125 111.214844 118.898438 112.992188 118.1875 C 113.199219 118.101562 113.289062 118.15625 113.378906 118.335938 C 113.46875 118.511719 113.496094 118.71875 113.464844 118.925781 L 113.378906 120.320312 C 113.378906 120.5 113.292969 120.753906 113.4375 120.824219 C 113.613281 120.941406 113.734375 120.675781 113.882812 120.605469 C 114.761719 119.867188 115.71875 119.257812 116.757812 118.769531 C 117.675781 118.335938 118.621094 118.054688 119.691406 118.117188 C 121.675781 118.238281 123.097656 119.246094 124.015625 120.996094 C 124.492188 121.914062 124.699219 122.921875 124.785156 123.960938 L 124.871094 126.132812 L 124.902344 132.6875 C 124.933594 133.191406 125.113281 133.519531 125.613281 133.699219 C 126.136719 133.871094 126.671875 134 127.214844 134.085938 C 127.691406 134.144531 127.71875 134.230469 127.75 134.675781 L 127.75 134.824219 C 127.691406 135.835938 127.628906 135.863281 126.621094 135.800781 C 124.410156 135.683594 122.195312 135.683594 119.984375 135.800781 C 119.6875 135.832031 119.390625 135.800781 119.117188 135.832031 C 118.9375 135.832031 118.820312 135.800781 118.789062 135.625 C 118.730469 135.238281 118.671875 134.851562 118.761719 134.4375 C 118.789062 134.257812 118.878906 134.167969 119.085938 134.140625 L 120.453125 133.921875 C 120.929688 133.800781 121.195312 133.488281 121.253906 133.054688 L 121.3125 132.222656 L 121.28125 126.023438 C 121.28125 125.3125 121.25 124.597656 121.105469 123.886719 C 120.75 122.367188 119.59375 121.28125 118.027344 121.128906 C 116.660156 120.980469 115.421875 121.339844 114.292969 122.078125 C 113.726562 122.433594 113.488281 122.9375 113.488281 123.5625 L 113.488281 128.042969 C 113.488281 127.953125 113.488281 127.953125 113.519531 127.953125 Z M 113.480469 127.894531 " fill-opacity="1" fill-rule="nonzero"/><g clip-path="url(#055b92ea78)"><path fill="#c2bfbf" d="M 200.261719 119.5 C 199.9375 117.332031 199.136719 115.40625 197.742188 113.714844 C 196.511719 112.195312 194.988281 111.070312 193.179688 110.332031 C 191.316406 109.5625 189.328125 109.324219 187.3125 109.265625 C 186.480469 109.234375 175.164062 109.414062 174.332031 109.265625 C 174.125 109.234375 173.976562 109.296875 173.855469 109.472656 C 173.707031 109.691406 173.558594 109.917969 173.46875 110.15625 C 173.113281 110.957031 173.113281 110.898438 173.972656 111.015625 C 174.683594 111.132812 175.363281 111.191406 176.046875 111.402344 C 176.667969 111.609375 177.113281 111.964844 177.261719 112.648438 C 177.320312 112.972656 177.382812 123.414062 177.382812 128.28125 L 177.261719 131.753906 C 177.230469 132.019531 177.203125 132.289062 177.113281 132.523438 C 176.996094 132.878906 176.789062 133.175781 176.433594 133.328125 C 176.039062 133.511719 175.625 133.621094 175.1875 133.652344 C 174.386719 133.738281 174.269531 133.773438 174.003906 134.660156 L 173.914062 134.988281 C 173.859375 135.375 173.886719 135.433594 174.273438 135.433594 L 183.132812 135.519531 L 186.601562 135.460938 L 189 135.164062 C 191.726562 134.660156 194.15625 133.53125 196.230469 131.722656 C 197.425781 130.664062 198.375 129.417969 199.074219 127.984375 C 199.90625 126.324219 200.261719 124.511719 200.351562 122.675781 C 200.496094 121.636719 200.4375 120.570312 200.261719 119.503906 Z M 195.964844 123.710938 C 195.847656 125.609375 195.460938 127.449219 194.484375 129.109375 C 193.238281 131.277344 191.460938 132.789062 189.003906 133.320312 C 187.9375 133.539062 186.871094 133.644531 185.75 133.5 C 184.949219 133.410156 184.179688 133.320312 183.4375 133.054688 C 182.105469 132.574219 181.632812 131.75 181.601562 130.449219 L 181.574219 112.5625 C 181.574219 111.496094 182.050781 111.261719 182.816406 111.226562 C 183.972656 111.140625 185.160156 111.167969 186.316406 111.285156 C 187.550781 111.40625 188.746094 111.695312 189.902344 112.152344 C 190.761719 112.511719 191.539062 112.996094 192.242188 113.609375 C 193.84375 114.976562 194.910156 116.691406 195.496094 118.710938 C 195.972656 120.34375 196.058594 122.003906 195.972656 123.664062 Z M 224.890625 126.621094 C 224.890625 126.441406 224.890625 126.292969 224.859375 126.117188 C 224.59375 124.484375 223.734375 123.238281 222.402344 122.289062 C 221.542969 121.667969 220.566406 121.25 219.558594 120.953125 C 219.378906 120.894531 219.230469 120.835938 219.054688 120.804688 C 219.085938 120.660156 219.171875 120.628906 219.261719 120.597656 C 219.855469 120.300781 220.417969 119.976562 220.921875 119.53125 C 221.839844 118.757812 222.4375 117.808594 222.757812 116.652344 C 222.933594 116.027344 222.933594 115.40625 222.875 114.753906 C 222.828125 113.976562 222.613281 113.253906 222.234375 112.578125 C 221.855469 111.902344 221.347656 111.339844 220.710938 110.894531 C 219.347656 109.886719 217.75 109.472656 216.089844 109.441406 C 212.890625 109.382812 209.660156 109.441406 206.460938 109.441406 C 205.542969 109.441406 204.625 109.5 203.675781 109.355469 C 203.5 109.324219 203.242188 109.265625 203.113281 109.472656 C 202.894531 109.859375 202.636719 110.242188 202.546875 110.6875 C 202.519531 110.898438 202.578125 111.015625 202.816406 111.046875 L 204.859375 111.34375 C 205.664062 111.460938 206.226562 111.90625 206.28125 112.617188 C 206.339844 113.109375 206.371094 113.605469 206.371094 114.101562 L 206.3125 119.648438 L 206.28125 130.621094 C 206.28125 131.273438 206.195312 131.898438 206.070312 132.550781 C 206.042969 132.761719 205.957031 132.945312 205.816406 133.109375 C 205.679688 133.269531 205.507812 133.378906 205.300781 133.441406 C 204.710938 133.617188 204.148438 133.796875 203.523438 133.796875 C 203.351562 133.78125 203.195312 133.820312 203.050781 133.914062 C 202.90625 134.007812 202.808594 134.136719 202.753906 134.300781 C 202.636719 134.566406 202.539062 134.863281 202.488281 135.128906 C 202.429688 135.488281 202.519531 135.609375 202.875 135.566406 C 203.140625 135.535156 212.917969 135.773438 214.757812 135.59375 C 215.851562 135.476562 216.925781 135.328125 218.015625 135.003906 C 219.878906 134.410156 221.601562 133.546875 222.964844 132.09375 C 224.089844 130.90625 224.742188 129.484375 224.800781 127.820312 C 224.886719 127.4375 224.886719 127.050781 224.886719 126.632812 Z M 210.519531 114.464844 L 210.605469 112.089844 C 210.605469 111.644531 210.785156 111.441406 211.226562 111.347656 C 211.941406 111.203125 212.652344 111.261719 213.363281 111.289062 C 214.074219 111.347656 214.753906 111.4375 215.464844 111.644531 C 216.765625 112.03125 217.777344 112.773438 218.371094 114.019531 C 218.644531 114.589844 218.78125 115.195312 218.785156 115.828125 C 218.816406 116.660156 218.753906 117.460938 218.429688 118.261719 C 217.925781 119.359375 217.128906 120.070312 215.96875 120.277344 C 214.8125 120.488281 211.527344 120.398438 211.023438 120.398438 C 210.578125 120.398438 210.546875 120.339844 210.546875 119.894531 L 210.546875 117.101562 C 210.476562 116.230469 210.464844 115.359375 210.515625 114.488281 Z M 220.148438 130.421875 C 219.644531 131.757812 218.722656 132.679688 217.421875 133.179688 C 216.710938 133.445312 216 133.613281 215.253906 133.566406 C 214.332031 133.535156 213.417969 133.566406 212.5 133.386719 C 211.253906 133.121094 210.691406 131.933594 210.601562 131.074219 C 210.453125 129.5625 210.542969 128.015625 210.515625 126.890625 L 210.515625 122.976562 C 210.515625 122.496094 210.574219 122.351562 211.078125 122.351562 L 213.863281 122.382812 L 215.761719 122.597656 C 217.097656 122.898438 218.308594 123.402344 219.261719 124.4375 C 220.03125 125.269531 220.445312 126.277344 220.535156 127.375 C 220.621094 128.414062 220.566406 129.421875 220.179688 130.402344 Z M 220.148438 130.421875 " fill-opacity="1" fill-rule="nonzero"/></g><path fill="#47474a" d="M 144.863281 121.484375 L 145.632812 121.605469 C 146.464844 121.636719 147.441406 121.339844 147.734375 120.179688 C 147.902344 119.617188 147.902344 119.050781 147.734375 118.488281 C 147.558594 118.488281 147.46875 118.636719 147.378906 118.695312 C 146.9375 119.050781 146.433594 119.261719 145.898438 119.320312 C 144.832031 119.4375 143.765625 119.378906 142.730469 118.992188 L 141.277344 118.492188 C 140.253906 118.15625 139.207031 118.019531 138.132812 118.078125 C 136.621094 118.199219 135.199219 118.699219 133.863281 119.414062 C 132.441406 120.183594 131.4375 121.339844 130.960938 122.914062 C 130.691406 123.835938 130.664062 124.78125 130.78125 125.730469 C 131.078125 127.898438 132.203125 129.410156 134.21875 130.210938 C 134.335938 130.242188 134.425781 130.296875 134.542969 130.332031 C 134.808594 130.480469 134.839844 130.628906 134.601562 130.835938 L 133.859375 131.339844 L 132.082031 132.4375 C 131.636719 132.703125 131.578125 132.914062 131.726562 133.386719 C 131.90625 133.949219 132.222656 134.425781 132.675781 134.808594 C 133.082031 135.160156 133.539062 135.4375 134.039062 135.640625 C 134.363281 135.789062 134.363281 135.859375 134.070312 136.117188 L 132.378906 137.332031 C 131.8125 137.769531 131.25 138.203125 130.777344 138.757812 C 130.445312 139.117188 130.214844 139.53125 130.085938 140.003906 C 129.960938 140.476562 129.953125 140.953125 130.066406 141.429688 C 130.292969 142.484375 130.804688 143.375 131.605469 144.097656 C 132.386719 144.824219 133.296875 145.316406 134.332031 145.582031 C 135.988281 146.058594 137.710938 146.082031 139.398438 145.757812 C 141.828125 145.3125 143.953125 144.238281 145.621094 142.40625 C 146.777344 141.191406 147.457031 139.765625 147.519531 138.066406 C 147.550781 137.574219 147.496094 137.089844 147.359375 136.617188 C 147.21875 136.144531 147.003906 135.710938 146.710938 135.3125 C 146.417969 134.917969 146.066406 134.582031 145.65625 134.3125 C 145.242188 134.039062 144.796875 133.847656 144.320312 133.734375 L 142.71875 133.4375 L 137.828125 133.003906 C 137.296875 132.972656 136.761719 132.882812 136.316406 132.617188 C 135.753906 132.261719 135.605469 131.578125 135.960938 131.132812 C 136.226562 130.808594 136.554688 130.601562 136.96875 130.570312 L 137.917969 130.484375 C 139.84375 130.289062 141.511719 129.527344 142.925781 128.199219 C 143.671875 127.507812 144.175781 126.664062 144.4375 125.675781 C 144.792969 124.402344 144.792969 123.074219 144.492188 121.769531 C 144.40625 121.445312 144.4375 121.414062 144.851562 121.472656 Z M 137.597656 136.261719 C 137.777344 136.292969 137.953125 136.261719 138.132812 136.261719 C 139.375 136.320312 140.652344 136.410156 141.867188 136.738281 C 142.261719 136.855469 142.648438 137.003906 143.023438 137.183594 C 144.207031 137.835938 144.652344 138.964844 144.503906 140.179688 C 144.324219 141.515625 143.582031 142.464844 142.425781 143.089844 C 141.65625 143.523438 140.796875 143.710938 139.90625 143.800781 C 139.582031 143.832031 139.285156 143.800781 138.960938 143.800781 C 137.925781 143.832031 136.914062 143.714844 135.9375 143.296875 C 135.257812 143.03125 134.691406 142.644531 134.191406 142.109375 C 133.152344 141.070312 132.671875 139.171875 134.21875 137.628906 C 135.167969 136.761719 136.238281 136.148438 137.597656 136.261719 Z M 140.976562 127.007812 C 140.355469 128.578125 138.992188 129.054688 137.628906 128.84375 C 136.382812 128.667969 135.464844 127.984375 134.875 126.855469 C 134.105469 125.34375 133.898438 123.773438 134.34375 122.140625 C 134.667969 120.921875 135.410156 120.003906 136.710938 119.796875 C 138.371094 119.496094 139.964844 120.09375 140.800781 121.753906 C 141.234375 122.554688 141.421875 123.53125 141.421875 124.925781 C 141.394531 125.492188 141.277344 126.261719 140.980469 127.003906 Z M 103.644531 124.988281 C 103.375 123.386719 102.785156 121.929688 101.6875 120.714844 C 100.054688 118.90625 97.984375 118.109375 95.640625 118.105469 C 93.597656 118.074219 91.675781 118.667969 89.953125 119.738281 C 89.105469 120.242188 88.382812 120.890625 87.785156 121.671875 C 87.183594 122.457031 86.753906 123.324219 86.484375 124.273438 C 85.980469 125.996094 86.007812 127.75 86.398438 129.496094 C 87.433594 134.183594 91.050781 136.199219 95.375 135.902344 C 96.648438 135.816406 97.863281 135.398438 99.019531 134.835938 C 100.738281 134.03125 101.980469 132.757812 102.839844 131.066406 C 103.523438 129.671875 103.816406 128.1875 103.789062 126.496094 L 103.640625 124.984375 Z M 99.4375 131.574219 C 99.21875 132.253906 98.835938 132.820312 98.28125 133.273438 C 97.726562 133.726562 97.09375 133.988281 96.382812 134.066406 C 95.082031 134.242188 93.863281 133.917969 92.769531 133.144531 C 91.96875 132.554688 91.34375 131.8125 90.902344 130.917969 C 89.6875 128.425781 89.480469 125.820312 90.101562 123.148438 C 90.304688 122.304688 90.71875 121.582031 91.34375 120.980469 C 92.441406 119.972656 93.714844 119.738281 95.140625 120.035156 C 96.503906 120.332031 97.539062 121.070312 98.390625 122.199219 C 99.242188 123.328125 99.636719 124.632812 99.871094 126 C 99.992188 126.679688 99.992188 127.390625 100.019531 127.835938 C 100.019531 129.261719 99.902344 130.441406 99.457031 131.574219 Z M 168.390625 125.226562 C 168.171875 123.503906 167.53125 121.933594 166.3125 120.628906 C 164.714844 118.878906 162.636719 118.136719 160.328125 118.105469 C 158.34375 118.074219 156.507812 118.640625 154.816406 119.621094 C 152.921875 120.746094 151.617188 122.347656 151.113281 124.515625 C 150.8125 125.695312 150.722656 126.894531 150.847656 128.105469 C 150.96875 129.320312 151.296875 130.476562 151.824219 131.574219 C 152.800781 133.648438 154.460938 134.984375 156.65625 135.578125 C 159.085938 136.230469 161.398438 135.933594 163.648438 134.835938 C 165.605469 133.886719 166.996094 132.40625 167.796875 130.386719 C 168.273438 129.199219 168.449219 127.925781 168.476562 126.4375 C 168.507812 126.171875 168.449219 125.695312 168.390625 125.222656 Z M 164.300781 131.1875 C 163.824219 132.789062 162.820312 133.828125 161.128906 134.066406 C 159.886719 134.246094 158.699219 133.949219 157.632812 133.234375 C 156.710938 132.613281 156.0625 131.78125 155.585938 130.804688 C 155.054688 129.765625 154.757812 128.667969 154.640625 127.542969 C 154.460938 126.148438 154.460938 124.785156 154.789062 123.390625 C 154.847656 123.113281 154.9375 122.847656 155.054688 122.589844 C 155.882812 120.511719 157.722656 119.5625 159.886719 120.039062 C 161.335938 120.363281 162.433594 121.167969 163.261719 122.382812 C 164.066406 123.570312 164.449219 124.875 164.628906 126.289062 C 164.714844 126.855469 164.75 127.445312 164.714844 127.949219 C 164.714844 129.105469 164.628906 130.175781 164.28125 131.210938 Z M 164.300781 131.1875 " fill-opacity="1" fill-rule="nonzero"/></svg>