<svg xmlns="http://www.w3.org/2000/svg" xmlns:xlink="http://www.w3.org/1999/xlink" width="300" zoomAndPan="magnify" viewBox="0 0 224.87999 225" height="300" preserveAspectRatio="xMidYMid meet" version="1.0"><defs><clipPath id="6bf5c66cdc"><path d="M 188 103 L 224.761719 103 L 224.761719 144 L 188 144 Z M 188 103 " clip-rule="nonzero"/></clipPath><clipPath id="7cc4b8d662"><path d="M 0 80.199219 L 178 80.199219 L 178 144.664062 L 0 144.664062 Z M 0 80.199219 " clip-rule="nonzero"/></clipPath></defs><g clip-path="url(#6bf5c66cdc)"><path fill="#83cd29" d="M 206.886719 103.128906 C 206.335938 103.128906 205.804688 103.242188 205.332031 103.507812 L 190.425781 112.101562 C 189.460938 112.65625 188.871094 113.703125 188.871094 114.816406 L 188.871094 131.972656 C 188.871094 133.085938 189.460938 134.132812 190.425781 134.691406 L 194.316406 136.929688 C 196.210938 137.859375 196.90625 137.84375 197.769531 137.84375 C 200.570312 137.84375 202.167969 136.148438 202.167969 133.199219 L 202.167969 116.273438 C 202.167969 116.035156 201.960938 115.863281 201.726562 115.863281 L 199.859375 115.863281 C 199.617188 115.863281 199.414062 116.039062 199.414062 116.273438 L 199.414062 133.207031 C 199.414062 134.515625 198.050781 135.828125 195.835938 134.726562 L 191.789062 132.355469 C 191.648438 132.277344 191.535156 132.136719 191.535156 131.976562 L 191.535156 114.820312 C 191.535156 114.660156 191.644531 114.492188 191.789062 114.410156 L 206.667969 105.847656 C 206.808594 105.769531 206.972656 105.769531 207.113281 105.847656 L 221.988281 114.410156 C 222.132812 114.496094 222.242188 114.652344 222.242188 114.820312 L 222.242188 131.976562 C 222.242188 132.140625 222.160156 132.308594 222.023438 132.386719 L 207.113281 140.949219 C 206.980469 141.023438 206.804688 141.023438 206.667969 140.949219 L 202.839844 138.675781 C 202.722656 138.609375 202.570312 138.613281 202.457031 138.675781 C 201.402344 139.273438 201.203125 139.34375 200.210938 139.6875 C 199.96875 139.769531 199.59375 139.902344 200.339844 140.316406 L 205.339844 143.261719 C 205.816406 143.535156 206.347656 143.671875 206.890625 143.671875 C 207.441406 143.671875 207.964844 143.539062 208.441406 143.261719 L 223.351562 134.699219 C 224.316406 134.136719 224.902344 133.09375 224.902344 131.980469 L 224.902344 114.824219 C 224.902344 113.710938 224.316406 112.664062 223.351562 112.109375 L 208.441406 103.515625 C 207.976562 103.25 207.4375 103.136719 206.890625 103.136719 Z M 210.875 115.386719 C 206.628906 115.386719 204.101562 117.191406 204.101562 120.1875 C 204.101562 123.4375 206.609375 124.335938 210.683594 124.738281 C 215.558594 125.214844 215.9375 125.929688 215.9375 126.886719 C 215.9375 128.546875 214.613281 129.257812 211.476562 129.257812 C 207.535156 129.257812 206.667969 128.273438 206.378906 126.3125 C 206.34375 126.105469 206.183594 125.933594 205.96875 125.933594 L 204.03125 125.933594 C 203.910156 125.9375 203.808594 125.980469 203.722656 126.066406 C 203.636719 126.152344 203.589844 126.257812 203.589844 126.378906 C 203.589844 128.882812 204.953125 131.84375 211.472656 131.84375 C 216.1875 131.84375 218.910156 130 218.910156 126.757812 C 218.910156 123.550781 216.710938 122.683594 212.136719 122.078125 C 207.515625 121.464844 207.070312 121.171875 207.070312 120.089844 C 207.070312 119.195312 207.445312 118.003906 210.871094 118.003906 C 213.929688 118.003906 215.058594 118.664062 215.523438 120.722656 C 215.5625 120.914062 215.734375 121.070312 215.933594 121.070312 L 217.871094 121.070312 C 217.988281 121.070312 218.105469 121 218.1875 120.914062 C 218.269531 120.824219 218.324219 120.722656 218.3125 120.597656 C 218.015625 117.050781 215.644531 115.386719 210.875 115.386719 Z M 210.875 115.386719 " fill-opacity="1" fill-rule="nonzero"/></g><g clip-path="url(#7cc4b8d662)"><path fill="#404137" d="M 119.230469 80.640625 C 119.0625 80.640625 118.902344 80.683594 118.753906 80.765625 C 118.441406 80.949219 118.28125 81.222656 118.28125 81.585938 L 118.28125 105.757812 C 118.28125 105.992188 118.167969 106.207031 117.964844 106.324219 C 117.742188 106.453125 117.519531 106.453125 117.300781 106.324219 L 113.34375 104.050781 C 113.046875 103.878906 112.730469 103.796875 112.390625 103.796875 C 112.054688 103.796875 111.738281 103.878906 111.441406 104.050781 L 95.648438 113.148438 C 95.058594 113.488281 94.699219 114.144531 94.699219 114.824219 L 94.699219 133.019531 C 94.695312 133.359375 94.78125 133.675781 94.953125 133.96875 C 95.121094 134.261719 95.351562 134.492188 95.648438 134.664062 L 111.445312 143.761719 C 111.738281 143.933594 112.054688 144.015625 112.394531 144.015625 C 112.734375 144.015625 113.050781 143.933594 113.34375 143.761719 L 129.140625 134.664062 C 129.433594 134.492188 129.664062 134.261719 129.835938 133.96875 C 130.003906 133.675781 130.089844 133.359375 130.089844 133.019531 L 130.089844 87.652344 C 130.089844 86.964844 129.710938 86.316406 129.109375 85.980469 L 119.707031 80.730469 C 119.558594 80.648438 119.394531 80.636719 119.230469 80.636719 Z M 17.613281 103.355469 C 17.3125 103.367188 17.03125 103.417969 16.761719 103.574219 L 0.964844 112.675781 C 0.667969 112.84375 0.4375 113.074219 0.269531 113.367188 C 0.0976562 113.660156 0.015625 113.976562 0.015625 114.316406 L 0.046875 138.738281 C 0.046875 139.078125 0.222656 139.394531 0.523438 139.558594 C 0.816406 139.734375 1.179688 139.734375 1.472656 139.558594 L 10.839844 134.1875 C 11.433594 133.835938 11.824219 133.226562 11.824219 132.546875 L 11.824219 121.140625 C 11.824219 120.460938 12.179688 119.835938 12.773438 119.5 L 16.761719 117.191406 C 17.054688 117.023438 17.371094 116.9375 17.710938 116.9375 C 18.050781 116.9375 18.367188 117.023438 18.660156 117.191406 L 22.648438 119.496094 C 23.238281 119.835938 23.597656 120.460938 23.597656 121.140625 L 23.597656 132.542969 C 23.597656 133.222656 23.992188 133.839844 24.578125 134.1875 L 33.949219 139.558594 C 34.242188 139.734375 34.605469 139.734375 34.898438 139.558594 C 35.1875 139.390625 35.375 139.074219 35.375 138.738281 L 35.40625 114.316406 C 35.40625 113.976562 35.324219 113.660156 35.152344 113.367188 C 34.984375 113.070312 34.75 112.839844 34.457031 112.671875 L 18.660156 103.578125 C 18.394531 103.421875 18.109375 103.367188 17.804688 103.355469 Z M 159.558594 103.574219 C 159.21875 103.574219 158.902344 103.660156 158.609375 103.828125 L 142.8125 112.929688 C 142.222656 113.269531 141.859375 113.890625 141.859375 114.570312 L 141.859375 132.765625 C 141.859375 133.453125 142.246094 134.070312 142.84375 134.410156 L 158.511719 143.324219 C 159.089844 143.652344 159.796875 143.675781 160.378906 143.355469 L 169.875 138.078125 C 170.175781 137.910156 170.382812 137.597656 170.382812 137.257812 C 170.382812 136.914062 170.203125 136.605469 169.90625 136.4375 L 154.015625 127.335938 C 153.71875 127.167969 153.507812 126.824219 153.507812 126.484375 L 153.507812 120.792969 C 153.507812 120.453125 153.71875 120.140625 154.015625 119.972656 L 158.953125 117.128906 C 159.246094 116.957031 159.609375 116.957031 159.902344 117.128906 L 164.855469 119.972656 C 165.171875 120.152344 165.328125 120.425781 165.328125 120.792969 L 165.328125 125.277344 C 165.328125 125.644531 165.484375 125.917969 165.804688 126.101562 C 166.097656 126.269531 166.457031 126.269531 166.753906 126.101562 L 176.21875 120.601562 C 176.804688 120.261719 177.167969 119.636719 177.167969 118.960938 L 177.167969 114.570312 C 177.167969 114.230469 177.082031 113.914062 176.914062 113.621094 C 176.742188 113.328125 176.511719 113.097656 176.21875 112.925781 L 160.515625 103.828125 C 160.222656 103.660156 159.90625 103.574219 159.566406 103.574219 Z M 112.328125 117.160156 C 112.417969 117.160156 112.5 117.183594 112.582031 117.222656 L 117.992188 120.351562 C 118.140625 120.4375 118.246094 120.59375 118.246094 120.761719 L 118.246094 127.019531 C 118.246094 127.1875 118.140625 127.34375 117.992188 127.429688 L 112.582031 130.554688 C 112.433594 130.640625 112.253906 130.640625 112.105469 130.554688 L 106.691406 127.429688 C 106.542969 127.34375 106.4375 127.1875 106.4375 127.019531 L 106.4375 120.765625 C 106.4375 120.59375 106.546875 120.4375 106.691406 120.355469 L 112.105469 117.226562 C 112.179688 117.183594 112.246094 117.164062 112.328125 117.164062 Z M 112.328125 117.160156 " fill-opacity="1" fill-rule="nonzero"/></g><path fill="#83cd29" d="M 65.066406 103.480469 C 64.726562 103.480469 64.410156 103.566406 64.113281 103.734375 L 48.320312 112.800781 C 47.726562 113.140625 47.371094 113.796875 47.371094 114.476562 L 47.371094 132.671875 C 47.367188 133.011719 47.453125 133.328125 47.621094 133.621094 C 47.792969 133.914062 48.023438 134.144531 48.320312 134.316406 L 64.113281 143.414062 C 64.410156 143.582031 64.726562 143.667969 65.066406 143.667969 C 65.40625 143.667969 65.722656 143.582031 66.015625 143.414062 L 81.8125 134.316406 C 82.105469 134.144531 82.335938 133.914062 82.507812 133.621094 C 82.675781 133.328125 82.761719 133.011719 82.761719 132.671875 L 82.761719 114.476562 C 82.761719 113.796875 82.402344 113.140625 81.808594 112.800781 L 66.015625 103.734375 C 65.71875 103.566406 65.402344 103.480469 65.0625 103.480469 Z M 159.527344 119.71875 C 159.464844 119.71875 159.394531 119.71875 159.335938 119.75 L 156.296875 121.519531 C 156.175781 121.589844 156.109375 121.695312 156.109375 121.835938 L 156.109375 125.3125 C 156.109375 125.441406 156.183594 125.5625 156.296875 125.628906 L 159.335938 127.363281 C 159.453125 127.4375 159.570312 127.4375 159.683594 127.363281 L 162.722656 125.628906 C 162.835938 125.5625 162.914062 125.441406 162.914062 125.3125 L 162.914062 121.835938 C 162.914062 121.703125 162.835938 121.585938 162.722656 121.519531 L 159.683594 119.75 C 159.628906 119.714844 159.589844 119.71875 159.527344 119.71875 Z M 159.527344 119.71875 " fill-opacity="1" fill-rule="nonzero"/></svg>