<svg xmlns="http://www.w3.org/2000/svg" xmlns:xlink="http://www.w3.org/1999/xlink" width="300" zoomAndPan="magnify" viewBox="0 0 224.87999 225" height="300" preserveAspectRatio="xMidYMid meet" version="1.0"><defs><clipPath id="9c95d7d2ac"><path d="M 0 12 L 224.761719 12 L 224.761719 213 L 0 213 Z M 0 12 " clip-rule="nonzero"/></clipPath></defs><g clip-path="url(#9c95d7d2ac)"><path fill="#00d8ff" d="M 184.808594 77.367188 C 182.484375 76.566406 180.070312 75.808594 177.578125 75.089844 C 177.992188 73.421875 178.367188 71.773438 178.703125 70.15625 C 184.167969 43.574219 180.597656 22.160156 168.375 15.109375 C 156.652344 8.351562 137.488281 15.398438 118.132812 32.25 C 116.273438 33.871094 114.40625 35.585938 112.546875 37.382812 C 111.300781 36.195312 110.0625 35.042969 108.824219 33.945312 C 88.539062 15.925781 68.207031 8.332031 56 15.402344 C 44.292969 22.183594 40.824219 42.3125 45.753906 67.503906 C 46.230469 69.9375 46.785156 72.421875 47.414062 74.949219 C 44.535156 75.765625 41.757812 76.636719 39.101562 77.566406 C 15.320312 85.859375 0.132812 98.859375 0.132812 112.34375 C 0.132812 126.265625 16.4375 140.242188 41.207031 148.710938 C 43.160156 149.378906 45.1875 150.011719 47.277344 150.609375 C 46.601562 153.339844 46.011719 156.015625 45.515625 158.632812 C 40.816406 183.386719 44.484375 203.039062 56.160156 209.773438 C 68.21875 216.734375 88.460938 209.578125 108.167969 192.347656 C 109.730469 190.988281 111.289062 189.539062 112.851562 188.027344 C 114.886719 189.976562 116.914062 191.828125 118.925781 193.566406 C 138.015625 210 156.871094 216.636719 168.53125 209.886719 C 180.578125 202.90625 184.5 181.789062 179.410156 156.101562 C 179.027344 154.136719 178.570312 152.136719 178.070312 150.097656 C 179.492188 149.675781 180.886719 149.238281 182.246094 148.792969 C 207.996094 140.25 224.746094 126.460938 224.746094 112.34375 C 224.746094 98.808594 209.066406 85.722656 184.808594 77.367188 Z M 179.226562 139.679688 C 178 140.082031 176.734375 140.476562 175.453125 140.855469 C 172.613281 131.859375 168.777344 122.28125 164.074219 112.390625 C 168.558594 102.734375 172.242188 93.28125 175.007812 84.339844 C 177.304688 85.003906 179.535156 85.703125 181.683594 86.445312 C 202.46875 93.605469 215.148438 104.191406 215.148438 112.34375 C 215.148438 121.027344 201.460938 132.304688 179.226562 139.679688 Z M 169.996094 157.964844 C 172.253906 169.324219 172.566406 179.59375 171.078125 187.625 C 169.742188 194.839844 167.050781 199.652344 163.722656 201.574219 C 156.644531 205.671875 141.507812 200.34375 125.1875 186.289062 C 123.3125 184.675781 121.425781 182.953125 119.539062 181.136719 C 125.863281 174.210938 132.191406 166.164062 138.367188 157.21875 C 149.21875 156.261719 159.476562 154.679688 168.785156 152.53125 C 169.242188 154.382812 169.648438 156.191406 169.996094 157.964844 Z M 76.710938 200.863281 C 69.796875 203.3125 64.289062 203.382812 60.957031 201.457031 C 53.875 197.367188 50.929688 181.585938 54.945312 160.421875 C 55.40625 158 55.953125 155.507812 56.585938 152.960938 C 65.785156 154.996094 75.96875 156.464844 86.855469 157.339844 C 93.070312 166.09375 99.582031 174.132812 106.136719 181.171875 C 104.703125 182.558594 103.273438 183.875 101.851562 185.113281 C 93.140625 192.742188 84.410156 198.148438 76.710938 200.863281 Z M 44.3125 139.625 C 33.359375 135.878906 24.316406 131.015625 18.113281 125.695312 C 12.542969 120.929688 9.730469 116.191406 9.730469 112.34375 C 9.730469 104.164062 21.925781 93.722656 42.261719 86.628906 C 44.730469 85.769531 47.3125 84.957031 49.992188 84.195312 C 52.804688 93.34375 56.492188 102.910156 60.941406 112.574219 C 56.433594 122.386719 52.695312 132.105469 49.855469 141.363281 C 47.945312 140.8125 46.09375 140.234375 44.3125 139.625 Z M 55.171875 65.660156 C 50.953125 44.078125 53.753906 27.796875 60.808594 23.710938 C 68.324219 19.359375 84.941406 25.566406 102.449219 41.125 C 103.574219 42.117188 104.695312 43.15625 105.828125 44.234375 C 99.300781 51.246094 92.851562 59.226562 86.691406 67.925781 C 76.125 68.90625 66.015625 70.476562 56.71875 72.585938 C 56.132812 70.234375 55.613281 67.921875 55.171875 65.660156 Z M 152.054688 89.597656 C 149.835938 85.757812 147.554688 82.007812 145.230469 78.359375 C 152.398438 79.265625 159.257812 80.46875 165.707031 81.941406 C 163.777344 88.148438 161.363281 94.636719 158.523438 101.292969 C 156.488281 97.421875 154.328125 93.519531 152.054688 89.597656 Z M 112.546875 51.097656 C 116.976562 55.894531 121.40625 61.25 125.769531 67.058594 C 121.371094 66.851562 116.925781 66.746094 112.441406 66.746094 C 108 66.746094 103.585938 66.851562 99.21875 67.054688 C 103.578125 61.296875 108.054688 55.949219 112.546875 51.097656 Z M 72.785156 89.664062 C 70.5625 93.515625 68.449219 97.394531 66.441406 101.285156 C 63.648438 94.652344 61.257812 88.132812 59.304688 81.839844 C 65.714844 80.40625 72.550781 79.230469 79.667969 78.339844 C 77.3125 82.023438 75.011719 85.800781 72.785156 89.664062 Z M 79.875 147.027344 C 72.515625 146.210938 65.582031 145.09375 59.171875 143.699219 C 61.15625 137.292969 63.601562 130.636719 66.453125 123.863281 C 68.464844 127.75 70.589844 131.628906 72.820312 135.492188 L 72.824219 135.492188 C 75.097656 139.425781 77.457031 143.269531 79.875 147.027344 Z M 112.808594 174.265625 C 108.265625 169.359375 103.726562 163.925781 99.296875 158.085938 C 103.597656 158.253906 107.984375 158.339844 112.441406 158.339844 C 117.019531 158.339844 121.546875 158.234375 125.996094 158.042969 C 121.628906 163.984375 117.207031 169.429688 112.808594 174.265625 Z M 158.609375 123.519531 C 161.609375 130.367188 164.144531 136.984375 166.15625 143.289062 C 159.644531 144.769531 152.609375 145.964844 145.203125 146.859375 C 147.535156 143.164062 149.835938 139.347656 152.097656 135.421875 C 154.390625 131.453125 156.554688 127.476562 158.609375 123.519531 Z M 143.78125 130.628906 C 140.273438 136.722656 136.664062 142.53125 133.007812 148.019531 C 126.347656 148.492188 119.460938 148.738281 112.441406 148.738281 C 105.449219 148.738281 98.648438 148.527344 92.101562 148.097656 C 88.292969 142.542969 84.613281 136.710938 81.125 130.683594 C 77.648438 124.667969 74.445312 118.605469 71.542969 112.574219 C 74.441406 106.535156 77.636719 100.460938 81.097656 94.457031 L 81.097656 94.460938 C 84.566406 88.441406 88.214844 82.636719 91.988281 77.113281 C 98.664062 76.605469 105.519531 76.34375 112.441406 76.34375 C 119.398438 76.34375 126.25 76.609375 132.929688 77.117188 C 136.648438 82.605469 140.273438 88.386719 143.753906 94.40625 C 147.273438 100.496094 150.511719 106.523438 153.433594 112.441406 C 150.519531 118.453125 147.292969 124.546875 143.78125 130.628906 Z M 163.574219 23.425781 C 171.105469 27.765625 174.027344 45.265625 169.296875 68.214844 C 169 69.679688 168.65625 71.171875 168.289062 72.683594 C 158.96875 70.53125 148.851562 68.929688 138.261719 67.933594 C 132.085938 59.144531 125.691406 51.148438 119.265625 44.226562 C 120.996094 42.566406 122.722656 40.984375 124.433594 39.488281 C 141.019531 25.050781 156.523438 19.351562 163.574219 23.425781 Z M 112.441406 92.273438 C 123.511719 92.273438 132.5 101.253906 132.5 112.34375 C 132.5 123.421875 123.511719 132.410156 112.441406 132.410156 C 101.367188 132.410156 92.382812 123.421875 92.382812 112.34375 C 92.382812 101.253906 101.367188 92.273438 112.441406 92.273438 Z M 112.441406 92.273438 " fill-opacity="1" fill-rule="nonzero"/></g></svg>