<svg xmlns="http://www.w3.org/2000/svg" xmlns:xlink="http://www.w3.org/1999/xlink" width="300" zoomAndPan="magnify" viewBox="0 0 224.87999 225" height="300" preserveAspectRatio="xMidYMid meet" version="1.0"><defs><clipPath id="6726f70e09"><path d="M 50 9.054688 L 170 9.054688 L 170 173 L 50 173 Z M 50 9.054688 " clip-rule="nonzero"/></clipPath><clipPath id="c8e1878756"><path d="M 85 73 L 223 73 L 223 215.945312 L 85 215.945312 Z M 85 73 " clip-rule="nonzero"/></clipPath></defs><g clip-path="url(#6726f70e09)"><path fill="#6c4eb0" d="M 80.777344 38.53125 C 88.800781 28.394531 103.910156 23.386719 114.207031 23.128906 C 143.085938 22.574219 155.121094 58.9375 156.050781 73.394531 L 169.417969 77.449219 C 166.339844 33.132812 139.078125 9.886719 112.992188 9.886719 C 88.53125 9.875 65.945312 27.847656 56.84375 54.199219 C 44.414062 89.332031 52.570312 123.109375 67.8125 150.140625 C 66.480469 151.898438 65.679688 154.996094 65.945312 157.964844 C 66.207031 166.078125 73.023438 172.832031 81.1875 172.832031 L 81.722656 172.832031 C 90.28125 172.566406 96.832031 165.410156 96.429688 156.886719 C 96.429688 148.773438 89.480469 142.039062 81.324219 142.039062 L 80.777344 142.039062 C 80.242188 142.039062 79.449219 142.039062 78.769531 142.296875 C 67.679688 123.378906 62.992188 103.101562 64.742188 81.230469 C 65.804688 64.738281 71.160156 50.417969 80.777344 38.53125 Z M 80.777344 38.53125 " fill-opacity="1" fill-rule="nonzero"/></g><path fill="#6c4eb0" d="M 16.347656 191.902344 C 25.308594 205.414062 43.628906 214.054688 63.679688 214.054688 C 69.027344 214.054688 74.648438 213.660156 80.125 212.304688 C 114.894531 205.546875 141.238281 184.46875 156.34375 153.398438 L 156.46875 153.121094 C 164.226562 152.441406 170.238281 145.542969 169.847656 137.300781 C 169.4375 129.054688 162.753906 122.441406 154.605469 122.441406 L 154.0625 122.441406 C 145.644531 122.71875 139.085938 129.875 139.355469 138.398438 C 139.621094 142.714844 141.371094 146.230469 143.761719 148.792969 C 134.410156 167.175781 120.375 180.679688 99.109375 192.039062 C 84.804688 199.597656 69.695312 202.441406 54.988281 200.417969 C 42.691406 198.667969 33.070312 193.109375 27.183594 184.203125 C 18.363281 170.683594 17.5625 156.101562 24.90625 141.511719 C 30.269531 130.972656 38.28125 123.269531 43.636719 119.476562 C 42.300781 115.972656 40.691406 110.027344 39.890625 105.574219 C 0.292969 134.210938 4.320312 173.386719 16.347656 191.902344 Z M 16.347656 191.902344 " fill-opacity="1" fill-rule="nonzero"/><g clip-path="url(#c8e1878756)"><path fill="#6c4eb0" d="M 217.429688 185.941406 C 225.441406 169.726562 224.78125 142.4375 204.320312 119.058594 L 204.195312 119.328125 C 183.480469 94.734375 152.988281 81.222656 118.214844 81.222656 L 113.664062 81.222656 C 111.40625 76.226562 106.191406 73.109375 100.304688 73.109375 L 99.902344 73.109375 C 91.488281 73.109375 84.929688 80.417969 85.203125 88.921875 C 85.472656 97.027344 92.289062 103.789062 100.445312 103.789062 L 101.105469 103.789062 C 107.128906 103.523438 112.34375 99.730469 114.476562 94.332031 L 119.425781 94.332031 C 140.03125 94.332031 159.539062 100.410156 177.332031 112.292969 C 190.960938 121.351562 200.730469 133.238281 206.210938 147.429688 C 211.011719 159.046875 210.753906 170.398438 205.808594 179.867188 C 198.1875 194.722656 185.347656 202.566406 168.375 202.566406 C 157.675781 202.566406 147.25 199.1875 141.898438 196.757812 C 138.695312 199.445312 133.339844 203.90625 129.457031 206.621094 C 141.21875 212.007812 153.125 215.125 164.617188 215.125 C 190.691406 215.125 210.066406 200.273438 217.429688 185.941406 Z M 217.429688 185.941406 " fill-opacity="1" fill-rule="nonzero"/></g></svg>