<svg xmlns="http://www.w3.org/2000/svg" xmlns:xlink="http://www.w3.org/1999/xlink" width="300" zoomAndPan="magnify" viewBox="0 0 224.87999 225" height="300" preserveAspectRatio="xMidYMid meet" version="1.0"><defs><clipPath id="b0f3df5a3f"><path d="M 0 126 L 93 126 L 93 171.855469 L 0 171.855469 Z M 0 126 " clip-rule="nonzero"/></clipPath><clipPath id="186a5f662c"><path d="M 213 151 L 224.761719 151 L 224.761719 162 L 213 162 Z M 213 151 " clip-rule="nonzero"/></clipPath></defs><g clip-path="url(#b0f3df5a3f)"><path fill="#00618a" d="M 0.824219 161.621094 L 8.179688 161.621094 L 8.179688 132.519531 L 19.5625 157.898438 C 20.90625 160.957031 22.746094 162.058594 26.351562 162.058594 C 29.957031 162.058594 31.726562 160.96875 33.070312 157.898438 L 44.457031 132.519531 L 44.457031 161.632812 L 51.8125 161.632812 L 51.8125 132.570312 C 51.8125 129.734375 50.679688 128.363281 48.347656 127.65625 C 42.757812 125.90625 39.011719 127.417969 37.316406 131.199219 L 26.144531 156.246094 L 15.320312 131.1875 C 13.695312 127.40625 9.875 125.894531 4.289062 127.644531 C 1.957031 128.351562 0.824219 129.722656 0.824219 132.558594 Z M 57.925781 137.925781 L 65.277344 137.925781 L 65.277344 153.964844 C 65.207031 154.839844 65.554688 156.882812 69.585938 156.945312 C 71.640625 156.980469 85.449219 156.945312 85.578125 156.945312 L 85.578125 137.847656 L 92.945312 137.847656 C 92.976562 137.847656 92.9375 163.886719 92.9375 164 C 92.980469 170.421875 84.988281 171.816406 81.304688 171.925781 L 58.085938 171.925781 L 58.085938 166.964844 L 81.347656 166.964844 C 86.082031 166.460938 85.523438 164.105469 85.523438 163.3125 L 85.523438 161.375 L 69.890625 161.375 C 62.621094 161.3125 57.988281 158.128906 57.929688 154.46875 C 57.925781 154.140625 58.089844 138.085938 57.925781 137.925781 Z M 57.925781 137.925781 " fill-opacity="1" fill-rule="nonzero"/></g><path fill="#e48e00" d="M 98.613281 161.621094 L 119.757812 161.621094 C 122.234375 161.621094 124.636719 161.101562 126.550781 160.203125 C 129.730469 158.738281 131.289062 156.753906 131.289062 154.15625 L 131.289062 148.769531 C 131.289062 146.640625 129.519531 144.65625 126.054688 143.332031 C 124.214844 142.625 121.953125 142.246094 119.761719 142.246094 L 110.851562 142.246094 C 107.882812 142.246094 106.46875 141.347656 106.113281 139.363281 C 106.042969 139.128906 106.042969 138.925781 106.042969 138.703125 L 106.042969 135.347656 C 106.042969 135.160156 106.042969 134.96875 106.113281 134.734375 C 106.46875 133.21875 107.246094 132.792969 109.859375 132.546875 C 110.074219 132.546875 110.355469 132.5 110.570312 132.5 L 131.570312 132.5 L 131.570312 127.585938 L 110.921875 127.585938 C 107.953125 127.585938 106.398438 127.773438 104.980469 128.199219 C 100.589844 129.570312 98.683594 131.757812 98.683594 135.535156 L 98.683594 139.835938 C 98.683594 143.144531 102.433594 145.980469 108.722656 146.640625 C 109.429688 146.6875 110.136719 146.734375 110.84375 146.734375 L 118.480469 146.734375 C 118.765625 146.734375 119.046875 146.734375 119.261719 146.785156 C 121.59375 146.972656 122.585938 147.398438 123.289062 148.25 C 123.726562 148.683594 123.859375 149.101562 123.859375 149.558594 L 123.859375 153.859375 C 123.859375 154.378906 123.503906 155.042969 122.796875 155.609375 C 122.160156 156.175781 121.101562 156.554688 119.683594 156.648438 C 119.402344 156.648438 119.191406 156.695312 118.90625 156.695312 L 98.613281 156.695312 Z M 177.164062 153.070312 C 177.164062 158.125 180.910156 160.960938 188.476562 161.527344 C 189.183594 161.582031 189.890625 161.613281 190.597656 161.621094 L 209.761719 161.621094 L 209.761719 156.707031 L 190.457031 156.707031 C 186.144531 156.707031 184.515625 155.621094 184.515625 153.019531 L 184.515625 127.597656 L 177.164062 127.597656 Z M 135.976562 153.324219 L 135.976562 135.804688 C 135.976562 131.351562 139.097656 128.652344 145.261719 127.800781 C 145.917969 127.707031 146.582031 127.660156 147.246094 127.660156 L 161.207031 127.660156 C 161.894531 127.660156 162.578125 127.707031 163.261719 127.800781 C 169.425781 128.652344 172.542969 131.351562 172.542969 135.804688 L 172.542969 153.324219 C 172.542969 156.933594 171.21875 158.867188 168.167969 160.128906 L 175.410156 166.683594 L 166.871094 166.683594 L 161.011719 161.378906 L 155.109375 161.753906 L 147.246094 161.753906 C 145.898438 161.753906 144.484375 161.566406 142.921875 161.136719 C 138.234375 159.859375 135.980469 157.398438 135.980469 153.324219 Z M 143.917969 152.886719 C 143.917969 153.125 143.988281 153.359375 144.058594 153.644531 C 144.496094 155.683594 146.398438 156.820312 149.289062 156.820312 L 155.972656 156.820312 L 149.835938 151.265625 L 158.375 151.265625 L 163.714844 156.109375 C 164.703125 155.582031 165.351562 154.773438 165.570312 153.742188 C 165.640625 153.503906 165.640625 153.265625 165.640625 153.03125 L 165.640625 136.230469 C 165.640625 136.042969 165.640625 135.792969 165.570312 135.570312 C 165.132812 133.675781 163.230469 132.585938 160.394531 132.585938 L 149.308594 132.585938 C 146.039062 132.585938 143.925781 134.007812 143.925781 136.230469 L 143.925781 152.902344 Z M 143.917969 152.886719 " fill-opacity="1" fill-rule="nonzero"/><path fill="#00618a" d="M 216.230469 119.441406 C 211.710938 119.320312 208.253906 119.742188 205.304688 120.988281 C 204.464844 121.34375 203.125 121.351562 202.988281 122.40625 C 203.449219 122.890625 203.523438 123.613281 203.886719 124.210938 C 204.59375 125.355469 205.785156 126.886719 206.847656 127.6875 C 208.003906 128.566406 209.199219 129.507812 210.445312 130.265625 C 212.660156 131.621094 215.128906 132.390625 217.257812 133.746094 C 218.515625 134.542969 219.761719 135.550781 220.984375 136.453125 C 221.589844 136.898438 222 137.589844 222.785156 137.867188 L 222.785156 137.738281 C 222.371094 137.210938 222.265625 136.488281 221.886719 135.9375 L 220.214844 134.261719 C 218.578125 132.078125 216.507812 130.179688 214.300781 128.589844 C 212.542969 127.324219 208.605469 125.617188 207.875 123.566406 L 207.746094 123.4375 C 208.992188 123.292969 210.453125 122.84375 211.601562 122.535156 C 213.535156 122.015625 215.265625 122.148438 217.261719 121.632812 L 219.960938 120.859375 L 219.960938 120.34375 C 218.953125 119.304688 218.230469 117.933594 217.132812 116.996094 C 214.253906 114.535156 211.113281 112.082031 207.878906 110.035156 C 206.082031 108.898438 203.867188 108.164062 201.964844 107.199219 C 201.324219 106.875 200.199219 106.707031 199.777344 106.167969 C 198.78125 104.890625 198.238281 103.273438 197.464844 101.796875 C 195.851562 98.683594 194.269531 95.28125 192.839844 92.003906 C 191.863281 89.769531 191.226562 87.566406 190.011719 85.5625 C 184.171875 75.941406 177.890625 70.136719 168.160156 64.429688 C 166.085938 63.21875 163.59375 62.738281 160.960938 62.113281 L 156.714844 61.855469 C 155.851562 61.492188 154.957031 60.433594 154.144531 59.917969 C 150.921875 57.875 142.648438 53.4375 140.261719 59.265625 C 138.753906 62.949219 142.515625 66.546875 143.859375 68.414062 C 144.804688 69.726562 146.015625 71.191406 146.6875 72.667969 C 147.132812 73.632812 147.210938 74.605469 147.589844 75.628906 C 148.523438 78.144531 149.335938 80.898438 150.546875 83.234375 C 151.15625 84.414062 151.828125 85.65625 152.601562 86.710938 C 153.074219 87.359375 153.886719 87.644531 154.015625 88.644531 C 153.222656 89.757812 153.175781 91.484375 152.730469 92.898438 C 150.71875 99.246094 151.476562 107.140625 154.402344 111.839844 C 155.296875 113.28125 157.410156 116.375 160.3125 115.191406 C 162.851562 114.152344 162.277344 110.941406 163.011719 108.101562 C 163.175781 107.457031 163.078125 106.988281 163.398438 106.558594 L 163.398438 106.6875 L 165.714844 111.324219 C 167.425781 114.089844 170.464844 116.976562 173.039062 118.929688 C 174.375 119.9375 175.4375 121.6875 177.152344 122.277344 L 177.152344 122.148438 L 177.027344 122.148438 C 176.691406 121.625 176.167969 121.410156 175.738281 120.992188 C 174.734375 120.003906 173.613281 118.773438 172.78125 117.640625 C 170.4375 114.453125 168.371094 110.964844 166.484375 107.332031 C 165.582031 105.597656 164.800781 103.6875 164.042969 101.921875 C 163.75 101.242188 163.753906 100.210938 163.144531 99.859375 C 162.3125 101.152344 161.085938 102.199219 160.445312 103.726562 C 159.414062 106.164062 159.28125 109.140625 158.902344 112.230469 C 158.675781 112.3125 158.777344 112.253906 158.644531 112.359375 C 156.855469 111.925781 156.222656 110.078125 155.558594 108.492188 C 153.875 104.484375 153.566406 98.03125 155.042969 93.417969 C 155.425781 92.222656 157.160156 88.464844 156.457031 87.363281 C 156.125 86.261719 155.019531 85.613281 154.402344 84.78125 C 153.636719 83.746094 152.875 82.375 152.34375 81.175781 C 150.96875 78.050781 150.324219 74.542969 148.875 71.382812 C 148.179688 69.871094 147.011719 68.34375 146.046875 67.011719 C 144.980469 65.527344 143.789062 64.429688 142.960938 62.640625 C 142.667969 62.003906 142.269531 60.980469 142.703125 60.320312 C 142.796875 59.898438 143.054688 59.640625 143.476562 59.546875 C 144.222656 58.972656 146.300781 59.738281 147.074219 60.0625 C 149.136719 60.921875 150.859375 61.738281 152.605469 62.898438 C 153.445312 63.445312 154.289062 64.535156 155.304688 64.832031 L 156.457031 64.832031 C 158.269531 65.25 160.296875 64.964844 161.984375 65.476562 C 164.972656 66.386719 167.652344 67.804688 170.082031 69.34375 C 177.492188 74.03125 183.550781 80.707031 187.695312 88.683594 C 188.363281 89.964844 188.648438 91.1875 189.238281 92.546875 C 190.421875 95.28125 191.914062 98.113281 193.09375 100.792969 C 194.269531 103.46875 195.414062 106.167969 197.078125 108.394531 C 197.953125 109.566406 201.328125 110.195312 202.863281 110.84375 C 203.9375 111.300781 205.699219 111.773438 206.71875 112.390625 C 208.664062 113.566406 210.550781 114.96875 212.375 116.257812 C 213.289062 116.902344 216.09375 118.316406 216.234375 119.476562 Z M 216.230469 119.441406 " fill-opacity="1" fill-rule="nonzero"/><path fill="#00618a" d="M 158.777344 70.351562 C 157.832031 70.332031 157.167969 70.453125 156.460938 70.609375 L 156.460938 70.738281 L 156.589844 70.738281 C 157.039062 71.664062 157.832031 72.257812 158.390625 73.058594 L 159.675781 75.761719 L 159.804688 75.632812 C 160.597656 75.070312 160.964844 74.171875 160.960938 72.796875 C 160.640625 72.460938 160.59375 72.039062 160.316406 71.636719 C 159.949219 71.101562 159.226562 70.800781 158.773438 70.347656 Z M 158.777344 70.351562 " fill-opacity="1" fill-rule="evenodd"/><g clip-path="url(#186a5f662c)"><path fill="#e48e00" d="M 213.222656 156.566406 C 213.222656 159.8125 215.78125 162 218.640625 162 C 221.5 162 224.058594 159.8125 224.058594 156.566406 C 224.058594 153.320312 221.5 151.136719 218.640625 151.136719 C 215.78125 151.136719 213.222656 153.320312 213.222656 156.566406 Z M 222.847656 156.566406 C 222.847656 159.03125 220.96875 160.871094 218.636719 160.871094 C 216.285156 160.871094 214.429688 159.03125 214.429688 156.566406 C 214.429688 154.105469 216.28125 152.265625 218.636719 152.265625 C 220.964844 152.265625 222.847656 154.105469 222.847656 156.566406 Z M 220.097656 159.667969 L 221.3125 159.667969 L 219.535156 156.945312 C 220.488281 156.84375 221.210938 156.378906 221.210938 155.25 C 221.210938 153.988281 220.414062 153.46875 218.882812 153.46875 L 216.46875 153.46875 L 216.46875 159.667969 L 217.511719 159.667969 L 217.511719 156.988281 L 218.480469 156.988281 Z M 217.511719 156.117188 L 217.511719 154.335938 L 218.710938 154.335938 C 219.332031 154.335938 220.082031 154.453125 220.082031 155.175781 C 220.082031 156.046875 219.40625 156.121094 218.625 156.121094 L 217.511719 156.121094 Z M 217.511719 156.117188 " fill-opacity="1" fill-rule="evenodd"/></g></svg>